<?xml version="1.0" encoding="UTF-8"?>
<svg width="517px" height="326px" viewBox="0 0 517 326" version="1.1" xmlns="http://www.w3.org/2000/svg" xmlns:xlink="http://www.w3.org/1999/xlink">
    <title>Group 62</title>
    <g id="final-2" stroke="none" stroke-width="1" fill="none" fill-rule="evenodd">
        <g id="Group-62" transform="translate(1.000000, 1.000000)">
            <path d="M0.271795582,174.339206 C17.3630734,151.150365 30.413287,122 63.2237655,122 C117.702734,122 117.702734,202.368081 172.18214,202.368081 C226.661984,202.368081 226.661984,122 281.141828,122 C335.621234,122 335.621234,202.368081 390.101079,202.368081 C444.580923,202.368081 444.580923,122 499.060767,122 C505.138375,122 510.537984,123.000178 515.410864,124.77738" id="Stroke-1-Copy-2" stroke="#FFFFFF" stroke-width="2" opacity="0.382626488"></path>
            <g id="Group-14-Copy-2" transform="translate(135.824152, 0.000000)">
                <g id="Group-7" transform="translate(209.000000, 273.000000)">
                    <circle id="Oval" fill="#FFABAB" cx="22.3999996" cy="29.3999995" r="22.3999996"></circle>
                    <circle id="Oval-Copy-3" stroke="#000000" stroke-width="1.39999998" cx="26.5999995" cy="22.3999996" r="22.3999996"></circle>
                </g>
                <g id="Group-7-Copy" transform="translate(21.000000, 265.000000)">
                    <circle id="Oval" fill="#FFE497" cx="16" cy="21" r="16"></circle>
                    <circle id="Oval-Copy-3" stroke="#000000" cx="19" cy="16" r="16"></circle>
                </g>
                <g id="Group-59">
                    <g id="Group-56-Copy">
                        <rect id="Rectangle" fill="#8FFAD8" x="1" y="79.0000007" width="254.800014" height="172.90001" rx="39.7800038"></rect>
                        <rect id="Rectangle-Copy-17" stroke="#000000" stroke-width="1.17000011" x="10.1000005" y="66" width="254.800014" height="172.90001" rx="39.7800038"></rect>
                        <g id="Group-3" transform="translate(0.500002, 0.100002)">
                            <rect id="Rectangle-Copy-3" fill="#6EDCB9" x="0" y="7" width="75" height="47" rx="16"></rect>
                            <rect id="Rectangle-Copy-4" stroke="#000000" stroke-width="1.17000011" x="6" y="0" width="75" height="47" rx="16"></rect>
                        </g>
                    </g>
                    <rect id="Rectangle" fill="#70E4BF" x="46" y="195" width="51" height="28" rx="4"></rect>
                    <rect id="Rectangle-Copy-30" fill="#70E4BF" x="107" y="149" width="51" height="74" rx="7"></rect>
                    <rect id="Rectangle-Copy-59" fill="#70E4BF" x="168" y="177" width="51" height="46" rx="6"></rect>
                    <path d="M111.207398,113.738549 C110.650421,115.450137 111.237364,117.237042 112.702724,118.29126 L121.386801,124.538668 L118.060326,134.647037 C117.497156,136.358626 118.079704,138.14871 119.544264,139.2073 C121.008825,140.265691 122.900307,140.263902 124.363269,139.202133 L133,132.931474 L141.636931,139.202332 C142.369311,139.734111 143.20937,140 144.049629,140 C144.886892,140 145.724554,139.735899 146.455736,139.207498 C147.920296,138.148909 148.502844,136.358825 147.939674,134.647236 L144.613199,124.538867 L153.297276,118.291657 C154.762636,117.23724 155.349579,115.450336 154.792602,113.738747 C154.235626,112.027357 152.707137,110.921273 150.898562,110.921273 L140.177564,110.921273 L136.89464,100.819064 C136.338063,99.1066804 134.809374,98 133,98 C131.190626,98 129.661937,99.1064816 129.10536,100.819064 L125.822436,110.921273 L115.101438,110.921273 C113.292863,110.921074 111.764374,112.02696 111.207398,113.738549 L111.207398,113.738549 Z" id="XMLID_1308_" fill="#70E4BF" fill-rule="nonzero"></path>
                </g>
            </g>
        </g>
    </g>
</svg>