<?xml version="1.0" encoding="UTF-8"?>
<svg width="265px" height="297px" viewBox="0 0 265 297" version="1.1" xmlns="http://www.w3.org/2000/svg" xmlns:xlink="http://www.w3.org/1999/xlink">
    <title>5F248044-A677-4BBF-8FD6-B80D99828285</title>
    <g id="final-2" stroke="none" stroke-width="1" fill="none" fill-rule="evenodd">
        <g id="Desktop-HD-Copy-42" transform="translate(-136.000000, -239.000000)">
            <g id="Group-15" transform="translate(136.000000, 240.000000)">
                <g id="Group-14">
                    <g id="Group-7">
                        <g id="Group-56" transform="translate(0.000000, 37.000000)">
                            <rect id="Rectangle" fill="#8FFAD8" x="0" y="13.0000007" width="254.800014" height="172.90001" rx="39.7800038"></rect>
                            <rect id="Rectangle-Copy-17" stroke="#000000" stroke-width="1.17000011" x="9.1000005" y="0" width="254.800014" height="172.90001" rx="39.7800038"></rect>
                            <g id="Group-3" transform="translate(21.500002, 203.100002)">
                                <rect id="Rectangle-Copy-3" fill="#6EDCB9" x="0" y="7" width="75" height="47" rx="16"></rect>
                                <rect id="Rectangle-Copy-4" stroke="#000000" stroke-width="1.17000011" x="6" y="0" width="75" height="47" rx="16"></rect>
                            </g>
                        </g>
                        <g id="Group-7-Copy-2" transform="translate(42.000000, 0.000000)">
                            <circle id="Oval" fill="#FFE497" cx="16" cy="21" r="16"></circle>
                            <circle id="Oval-Copy-3" stroke="#000000" cx="19" cy="16" r="16"></circle>
                        </g>
                    </g>
                    <rect id="Rectangle" fill="#FFABAB" x="166" y="200" width="51" height="73" rx="14"></rect>
                    <rect id="Rectangle-Copy-5" stroke="#000000" x="174" y="194" width="51" height="73" rx="14"></rect>
                </g>
                <path d="M111,102.49479 L111,154.50521 C111,157.818919 113.686292,160.50521 117,160.50521 C118.070474,160.50521 119.121456,160.21882 120.043943,159.675743 L164.217177,133.670533 C167.072783,131.98941 168.02489,128.311664 166.343767,125.456057 C165.826936,124.578152 165.095082,123.846298 164.217177,123.329467 L120.043943,97.3242567 C117.188336,95.6431335 113.51059,96.5952403 111.829467,99.4508469 C111.28639,100.373334 111,101.424316 111,102.49479 Z" id="Path-6" fill="#3D1369"></path>
            </g>
        </g>
    </g>
</svg>