<?xml version="1.0" encoding="UTF-8"?>
<svg width="265px" height="304px" viewBox="0 0 265 304" version="1.1" xmlns="http://www.w3.org/2000/svg" xmlns:xlink="http://www.w3.org/1999/xlink">
    <title>98CFDC19-F165-47FD-AF87-687E7A02EB6B</title>
    <g id="final-2" stroke="none" stroke-width="1" fill="none" fill-rule="evenodd">
        <g id="Desktop-HD-Copy-43" transform="translate(-136.000000, -232.000000)">
            <g id="Group-7" transform="translate(136.000000, 233.000000)">
                <g id="Group-56" transform="translate(0.000000, 44.000000)">
                    <rect id="Rectangle" fill="#8FFAD8" x="0" y="13.0000007" width="254.800014" height="172.90001" rx="39.7800038"></rect>
                    <rect id="Rectangle-Copy-17" stroke="#000000" stroke-width="1.17000011" x="9.1000005" y="0" width="254.800014" height="172.90001" rx="39.7800038"></rect>
                    <g id="Group-3" transform="translate(46.500002, 203.100002)">
                        <rect id="Rectangle-Copy-3" fill="#6EDCB9" x="0" y="7" width="75" height="47" rx="16"></rect>
                        <rect id="Rectangle-Copy-4" stroke="#000000" stroke-width="1.17000011" x="6" y="0" width="75" height="47" rx="16"></rect>
                    </g>
                    <g id="Group-3-Copy" transform="translate(149.500002, 203.100002)">
                        <rect id="Rectangle-Copy-3" fill="#FFABAB" x="0" y="7" width="75" height="47" rx="16"></rect>
                        <rect id="Rectangle-Copy-4" stroke="#000000" stroke-width="1.17000011" x="6" y="0" width="75" height="47" rx="16"></rect>
                    </g>
                </g>
                <g id="Group-7-Copy-2" transform="translate(173.000000, 0.000000)">
                    <circle id="Oval" fill="#FFE497" cx="16" cy="21" r="16"></circle>
                    <circle id="Oval-Copy-3" stroke="#000000" cx="19" cy="16" r="16"></circle>
                </g>
                <rect id="Rectangle" fill="#69D0AF" x="34" y="93" width="56" height="37" rx="12"></rect>
                <rect id="Rectangle-Copy-8" fill="#69D0AF" x="34" y="145" width="56" height="37" rx="12"></rect>
                <rect id="Rectangle-Copy-6" fill="#69D0AF" x="103" y="93" width="56" height="37" rx="12"></rect>
                <rect id="Rectangle-Copy-9" fill="#69D0AF" x="103" y="145" width="56" height="37" rx="12"></rect>
                <rect id="Rectangle-Copy-7" fill="#69D0AF" x="169" y="93" width="56" height="37" rx="12"></rect>
                <rect id="Rectangle-Copy-10" fill="#69D0AF" x="169" y="145" width="56" height="37" rx="12"></rect>
            </g>
        </g>
    </g>
</svg>