<?xml version="1.0" encoding="UTF-8"?>
<svg width="517px" height="327px" viewBox="0 0 517 327" version="1.1" xmlns="http://www.w3.org/2000/svg" xmlns:xlink="http://www.w3.org/1999/xlink">
    <title>Group 63</title>
    <g id="final-2" stroke="none" stroke-width="1" fill="none" fill-rule="evenodd">
        <g id="Group-63" transform="translate(1.000000, 1.000000)">
            <path d="M0,124.852181 C38.6232417,139.153025 44.08856,202.368081 92.4060451,202.368081 C146.885013,202.368081 146.885013,122 201.36442,122 C255.844264,122 255.844264,202.368081 310.32367,202.368081" id="Stroke-1-Copy-3" stroke="#FFFFFF" stroke-width="2" opacity="0.382626488"></path>
            <path d="M205,115.852181 C243.623242,130.153025 249.08856,193.368081 297.406045,193.368081 C351.885013,193.368081 351.885013,113 406.36442,113 C460.844264,113 460.844264,193.368081 515.32367,193.368081" id="Stroke-1-Copy-5" stroke="#FFFFFF" stroke-width="2" opacity="0"></path>
            <g id="Group-7-Copy-5" transform="translate(135.209742, 0.000000)">
                <g id="Group-56" transform="translate(0.000000, 53.000000)">
                    <rect id="Rectangle" fill="#8FFAD8" x="0" y="13.0000007" width="254.800014" height="172.90001" rx="39.7800038"></rect>
                    <rect id="Rectangle-Copy-17" stroke="#000000" stroke-width="1.17000011" x="9.1000005" y="0" width="254.800014" height="172.90001" rx="39.7800038"></rect>
                    <g id="Group-3" transform="translate(46.500002, 217.100002)">
                        <rect id="Rectangle-Copy-3" fill="#6EDCB9" x="0" y="7" width="75" height="47" rx="16"></rect>
                        <rect id="Rectangle-Copy-4" stroke="#000000" stroke-width="1.17000011" x="6" y="0" width="75" height="47" rx="16"></rect>
                    </g>
                    <g id="Group-3-Copy" transform="translate(149.500002, 203.100002)">
                        <rect id="Rectangle-Copy-3" fill="#FFABAB" x="0" y="7" width="75" height="47" rx="16"></rect>
                        <rect id="Rectangle-Copy-4" stroke="#000000" stroke-width="1.17000011" x="6" y="0" width="75" height="47" rx="16"></rect>
                    </g>
                </g>
                <g id="Group-7-Copy-2" transform="translate(173.000000, 0.000000)">
                    <circle id="Oval" fill="#FFE497" cx="16" cy="21" r="16"></circle>
                    <circle id="Oval-Copy-3" stroke="#000000" cx="19" cy="16" r="16"></circle>
                </g>
                <rect id="Rectangle" fill="#69D0AF" x="34" y="102" width="56" height="37" rx="12"></rect>
                <rect id="Rectangle-Copy-8" fill="#69D0AF" x="34" y="154" width="56" height="37" rx="12"></rect>
                <rect id="Rectangle-Copy-6" fill="#69D0AF" x="103" y="102" width="56" height="37" rx="12"></rect>
                <rect id="Rectangle-Copy-9" fill="#69D0AF" x="103" y="154" width="56" height="37" rx="12"></rect>
                <rect id="Rectangle-Copy-7" fill="#69D0AF" x="169" y="102" width="56" height="37" rx="12"></rect>
                <rect id="Rectangle-Copy-10" fill="#69D0AF" x="169" y="154" width="56" height="37" rx="12"></rect>
            </g>
        </g>
    </g>
</svg>