<?xml version="1.0" encoding="UTF-8"?>
<svg width="20px" height="20px" viewBox="0 0 20 20" version="1.1" xmlns="http://www.w3.org/2000/svg" xmlns:xlink="http://www.w3.org/1999/xlink">
    <title>facebook (3)</title>
    <g id="final-2" stroke="none" stroke-width="1" fill="none" fill-rule="evenodd">
        <g id="Desktop-HD-Copy-34" transform="translate(-1297.000000, -2211.000000)" fill="#000000" fill-rule="nonzero">
            <g id="Group-3" transform="translate(0.000000, 2146.000000)">
                <g id="Group-10">
                    <g id="Group-9" transform="translate(1297.000000, 65.000000)">
                        <g id="facebook-(3)">
                            <path d="M14.6167742,0 L4.87741935,0 C2.19870968,0 0,2.19870968 0,4.89290323 L0,14.6322581 C0,17.3109677 2.19870968,19.5096774 4.87741935,19.5096774 L14.6167742,19.5096774 C17.3109677,19.5096774 19.5096774,17.3109677 19.5096774,14.6167742 L19.5096774,4.89290323 C19.5096774,2.19870968 17.3109677,0 14.6167742,0 Z M12.3716129,9.75483871 L10.5290323,9.75483871 L10.5290323,15.7935484 L8.20645161,15.7935484 L8.20645161,9.75483871 L6.96774194,9.75483871 L6.96774194,7.27741935 L8.0516129,7.27741935 L8.0516129,6.22451613 C8.0516129,5.23354839 8.54709677,3.66967742 10.6374194,3.66967742 L12.5419355,3.66967742 L12.5419355,5.72903226 L11.1948387,5.72903226 C10.9780645,5.72903226 10.683871,5.8683871 10.683871,6.3483871 L10.683871,7.27741935 L12.5883871,7.27741935 L12.3716129,9.75483871 Z" id="Shape"></path>
                        </g>
                    </g>
                </g>
            </g>
        </g>
    </g>
</svg>