<?xml version="1.0" encoding="UTF-8"?>
<svg width="18px" height="18px" viewBox="0 0 18 18" version="1.1" xmlns="http://www.w3.org/2000/svg" xmlns:xlink="http://www.w3.org/1999/xlink">
    <title>filter (1)</title>
    <g id="Page-1" stroke="none" stroke-width="1" fill="none" fill-rule="evenodd">
        <g id="Mobile-Copy-7" transform="translate(-312.000000, -338.000000)" fill="#000000" fill-rule="nonzero">
            <g id="filter-(1)" transform="translate(312.000000, 338.000000)">
                <path d="M17.279879,0 L0.719298231,0 C0.33168859,0 0.0175438593,0.314144731 0.0175438593,0.701754372 C0.0175438593,2.65597581 0.855263141,4.52165563 2.31592648,5.82003827 L5.38925428,8.55167197 C5.92214901,9.02535617 6.22779595,9.70600311 6.22779595,10.4191335 L6.22779595,17.2623352 C6.22779595,17.8215457 6.85279593,18.1567979 7.31866761,17.8460797 L11.4588814,15.0860743 C11.6540568,14.9558659 11.7713813,14.7368418 11.7713813,14.5021927 L11.7713813,10.4191335 C11.7713813,9.70600311 12.0770283,9.02535617 12.609923,8.55167197 L15.6831137,5.82003827 C17.1437771,4.52165563 17.9814963,2.65597581 17.9814963,0.701754372 C17.9814963,0.314144731 17.6673516,0 17.279879,0 Z M14.750685,4.77097029 L11.6774943,7.50274108 C10.8452575,8.2425985 10.3678726,9.30550967 10.3678726,10.4189965 L10.3678726,14.1266445 L7.6311676,15.9510688 L7.6311676,10.4191335 C7.6311676,9.30550967 7.15378274,8.2425985 6.32154591,7.50274108 L3.2483552,4.77110734 C2.26343196,3.89542206 1.63473134,2.69558658 1.46641994,1.40337169 L16.5326203,1.40337169 C16.3643089,2.69558658 15.7357453,3.89542206 14.750685,4.77097029 Z" id="Shape"></path>
            </g>
        </g>
    </g>
</svg>