<?xml version="1.0" encoding="UTF-8"?>
<svg width="1300px" height="126px" viewBox="0 0 1300 126" version="1.1" xmlns="http://www.w3.org/2000/svg" xmlns:xlink="http://www.w3.org/1999/xlink">
    <title>Group 5 Copy</title>
    <g id="final-2" stroke="none" stroke-width="1" fill="none" fill-rule="evenodd">
        <g id="Desktop-HD-Copy-35" transform="translate(-141.000000, -447.000000)" stroke="#000000" stroke-width="2">
            <g id="Group-5-Copy" transform="translate(142.000000, 448.000000)">
                <path d="M0,88.3678161 C14.03754,108.567626 34.9942845,124 60.9051523,124 C133.792785,124 133.792785,0 206.681003,0 C279.568635,0 279.568635,124 352.456268,124 C425.343314,124 425.343314,0 498.230946,0 C571.117993,0 571.117993,124 644.005625,124 C716.893843,124 716.893843,0 789.782062,0 C862.669694,0 862.669694,124 935.557912,124 C1008.44613,124 1008.44613,0 1081.33435,0 C1154.22257,0 1154.22257,124 1227.11079,124 C1261.83284,124 1280.01394,95.8595041 1297.41377,66.3897444" id="Stroke-1"></path>
            </g>
        </g>
    </g>
</svg>