<?xml version="1.0" encoding="UTF-8"?>
<svg width="18px" height="27px" viewBox="0 0 18 27" version="1.1" xmlns="http://www.w3.org/2000/svg" xmlns:xlink="http://www.w3.org/1999/xlink">
    <title>Group 27 Copy 6</title>
    <g id="final-2" stroke="none" stroke-width="1" fill="none" fill-rule="evenodd">
        <g id="Desktop-HD-Copy-31" transform="translate(-1368.000000, -79.000000)">
            <g id="Group-27-Copy-6" transform="translate(1371.000000, 82.000000)">
                <g id="Group-15-Copy-5" transform="translate(0.660000, 0.088000)">
                    <path d="M8.27145076,-1.01712994 L3.35289136,-1.01712994 C1.89896961,-1.01712994 1.38603766,-0.829794181 0.858340936,-0.547578883 C0.252239572,-0.223432326 -0.223432326,0.252239572 -0.547578883,0.858340936 C-0.829794181,1.38603766 -1.01712994,1.89896961 -1.01712994,3.35289136 L-1.01712994,16.8444031 C-1.01712994,18.2983248 -0.829794181,18.8112568 -0.547578883,19.3389535 C-0.223432326,19.9450549 0.252239572,20.4207268 0.858340936,20.7448733 C1.38603766,21.0270886 1.89896961,21.2144244 3.35289136,21.2144244 L8.27145076,21.2144244 C9.7253725,21.2144244 10.2383045,21.0270886 10.7660012,20.7448733 C11.3721025,20.4207268 11.8477744,19.9450549 12.171921,19.3389535 C12.4541363,18.8112568 12.6414721,18.2983248 12.6414721,16.8444031 L12.6414721,3.35289136 C12.6414721,1.89896961 12.4541363,1.38603766 12.171921,0.858340936 C11.8477744,0.252239572 11.3721025,-0.223432326 10.7660012,-0.547578883 C10.2383045,-0.829794181 9.7253725,-1.01712994 8.27145076,-1.01712994 Z" id="Rectangle" stroke="#D1D1D1" stroke-width="2.03425987" fill="#FFFFFF"></path>
                    <circle id="Oval" fill="#D1D1D1" cx="5.81217106" cy="17.1459046" r="1.74365132"></circle>
                </g>
            </g>
        </g>
    </g>
</svg>