<?xml version="1.0" encoding="UTF-8"?>
<svg width="279px" height="100px" viewBox="0 0 279 100" version="1.1" xmlns="http://www.w3.org/2000/svg" xmlns:xlink="http://www.w3.org/1999/xlink">
    <title>Group 11</title>
    <g id="final-2" stroke="none" stroke-width="1" fill="none" fill-rule="evenodd">
        <g id="Desktop-HD-Copy-29" transform="translate(-1163.000000, -2183.000000)">
            <g id="Group-10" transform="translate(-2.000000, 2123.000000)">
                <g id="Group-5" transform="translate(1166.160175, 63.722944)">
                    <g id="Group-11" transform="translate(0.839825, 0.000000)">
                        <g id="Group-49-Copy-4" transform="translate(46.500000, 26.883117) rotate(1.000000) translate(-46.500000, -26.883117) translate(15.000000, 3.982684)">
                            <g id="Group-48" transform="translate(0.000000, 0.043121)">
                                <path d="M62.8991945,22.0419946 C52.4449011,7.34733154 41.9779802,-1.81357556e-15 31.498432,5.2918518e-15 C21.0188838,5.2918518e-15 10.5194064,7.37266716 2.60058636e-14,22.1180015 C10.5275845,36.8126646 21.0270619,44.1599961 31.498432,44.1599961 C41.9698021,44.1599961 52.436723,36.7873289 62.8991945,22.0419946 Z" id="Combined-Shape-Copy-10" stroke="#FA8F8F" stroke-width="10.0799991" fill="#FFFFFF"></path>
                                <ellipse id="Combined-Shape-Copy-11" fill="#FA8F8F" cx="31.6511972" cy="21.277089" rx="10.4831991" ry="10.4378173"></ellipse>
                            </g>
                        </g>
                        <g id="Group-49-Copy-5" transform="translate(153.500000, 66.709957) rotate(-180.000000) translate(-153.500000, -66.709957) translate(122.000000, 43.809524)">
                            <g id="Group-48" transform="translate(0.000000, 0.043121)">
                                <path d="M62.8991945,22.0419946 C52.4449011,7.34733154 41.9779802,-1.81357556e-15 31.498432,5.2918518e-15 C21.0188838,5.2918518e-15 10.5194064,7.37266716 2.60058636e-14,22.1180015 C10.5275845,36.8126646 21.0270619,44.1599961 31.498432,44.1599961 C41.9698021,44.1599961 52.436723,36.7873289 62.8991945,22.0419946 Z" id="Combined-Shape-Copy-10" stroke="#FA8F8F" stroke-width="10.0799991" fill="#FFFFFF"></path>
                                <ellipse id="Combined-Shape-Copy-11" fill="#FA8F8F" cx="31.6511972" cy="21.9740587" rx="10.4831991" ry="10.4378173"></ellipse>
                            </g>
                        </g>
                        <path d="M2.84217094e-14,61.7316017 C10.4205051,75.8426965 25.9773523,86.6233766 45.2118002,86.6233766 C99.3185702,86.6233766 99.3185702,-1.56319402e-13 153.425775,-1.56319402e-13 C207.532545,-1.56319402e-13 207.532545,86.6233766 261.639315,86.6233766 C266.554947,86.6233766 271.023988,85.9083905 275.127583,84.6083332" id="Stroke-1" stroke="#000000" stroke-width="2"></path>
                    </g>
                </g>
            </g>
        </g>
    </g>
</svg>