<?xml version="1.0" encoding="UTF-8"?>
<svg width="26px" height="26px" viewBox="0 0 26 26" version="1.1" xmlns="http://www.w3.org/2000/svg" xmlns:xlink="http://www.w3.org/1999/xlink">
    <title>Group 24 Copy 4</title>
    <g id="final-2" stroke="none" stroke-width="1" fill="none" fill-rule="evenodd">
        <g id="Group-24-Copy-4" transform="translate(2.000000, 2.000000)">
            <g id="Group-29">
                <g id="Group-28" stroke-width="1.79014862">
                    <rect id="Rectangle-Copy-11" stroke="#D1D1D1" fill="#FFFFFF" x="-0.895074309" y="-0.895074309" width="18.540825" height="12.0195693" rx="1.79014862"></rect>
                    <path d="M11.635966,14.4490567 L4.98684258,14.4490567 C4.45719698,14.4490567 3.97769289,14.663738 3.63060019,15.0108307 C3.25608584,15.385345 3.03573137,15.9140193 3.07288664,16.4935035 L3.5261396,18.3065154 L13.5539824,18.0026413 L13.5539824,16.3670731 C13.5539824,15.8374275 13.3393011,15.3579234 12.9922084,15.0108307 C12.6451157,14.663738 12.1656116,14.4490567 11.635966,14.4490567 Z" id="Rectangle-Copy-12" stroke="#D2D2D2" fill="#FFFFFF"></path>
                    <line x1="5.0036333" y1="11.124495" x2="5.0036333" y2="14.0654534" id="Line-Copy-2" stroke="#D2D2D2" stroke-linecap="square"></line>
                    <line x1="11.9084923" y1="11.124495" x2="11.9084923" y2="14.0654534" id="Line-Copy-3" stroke="#FFFFFF" stroke-linecap="square"></line>
                </g>
                <g id="Group-27-Copy-3" transform="translate(11.236864, 4.262259)">
                    <g id="Group-25-Copy">
                        <g id="Group-15-Copy" transform="translate(0.012399, 0.066130)">
                            <path d="M6.5877504,-0.810087411 L2.67039144,-0.810087411 C1.51242366,-0.810087411 1.10390189,-0.660884904 0.683620806,-0.436116119 C0.200894787,-0.177951418 -0.177951418,0.200894787 -0.436116119,0.683620806 C-0.660884904,1.10390189 -0.810087411,1.51242366 -0.810087411,2.67039144 L-0.810087411,13.41563 C-0.810087411,14.5735978 -0.660884904,14.9821196 -0.436116119,15.4024006 C-0.177951418,15.8851267 0.200894787,16.2639729 0.683620806,16.5221376 C1.10390189,16.7469064 1.51242366,16.8961089 2.67039144,16.8961089 L6.5877504,16.8961089 C7.74571818,16.8961089 8.15423995,16.7469064 8.57452103,16.5221376 C9.05724705,16.2639729 9.43609326,15.8851267 9.69425796,15.4024006 C9.91902674,14.9821196 10.0682293,14.5735978 10.0682293,13.41563 L10.0682293,2.67039144 C10.0682293,1.51242366 9.91902674,1.10390189 9.69425796,0.683620806 C9.43609326,0.200894787 9.05724705,-0.177951418 8.57452103,-0.436116119 C8.15423995,-0.660884904 7.74571818,-0.810087411 6.5877504,-0.810087411 Z" id="Rectangle" stroke="#D1D1D1" stroke-width="1.62017482" fill="#FFFFFF"></path>
                            <circle id="Oval" fill="#D2D2D2" cx="4.62907092" cy="13.6557592" r="1.38872128"></circle>
                        </g>
                    </g>
                </g>
            </g>
        </g>
    </g>
</svg>