<?xml version="1.0" encoding="UTF-8"?>
<svg width="152px" height="35px" viewBox="0 0 152 35" version="1.1" xmlns="http://www.w3.org/2000/svg" xmlns:xlink="http://www.w3.org/1999/xlink">
    <title>Group 26 Copy 3</title>
    <g id="Page-1" stroke="none" stroke-width="1" fill="none" fill-rule="evenodd">
        <g id="Desktop-HD-Copy-33" transform="translate(-217.000000, -13.000000)">
            <g id="Group-26-Copy-3" transform="translate(219.000000, 13.000000)">
                <g id="Group-58-Copy-5" transform="translate(55.000000, 0.000000)" fill="#3D1369" fill-rule="nonzero">
                    <path d="M7.45679476,28 L7.45679476,20.3190409 L15.6820738,20.3190409 L15.6820738,16.2971213 L7.45679476,16.2971213 L7.45679476,12.0635218 L17.7686336,12.0635218 L17.7686336,8.04160229 L2.25551535,8.04160229 L2.25551535,28 L7.45679476,28 Z M24.9476058,28.3024 C25.5120857,28.3024 26.0866457,28.23184 26.6712856,28.09072 C27.2559255,27.9496 27.7296855,27.76816 28.0925654,27.5464001 L28.0925654,27.5464001 L28.4252054,24.4619204 C28.1429654,24.5425604 27.9010455,24.6030404 27.6994455,24.6433604 C27.4978455,24.6836804 27.2458455,24.7038404 26.9434456,24.7038404 C26.4192856,24.7038404 26.0463257,24.5627204 25.8245657,24.2804804 C25.6028057,23.9982405 25.4919257,23.5244805 25.4919257,22.8592006 L25.4919257,22.8592006 L25.4919257,6.46912247 L20.3511263,6.46912247 L20.3511263,23.5244805 C20.3511263,25.2179203 20.7140063,26.4376002 21.4397662,27.1835201 C22.1655261,27.92944 23.334806,28.3024 24.9476058,28.3024 Z M37.4971785,28.3024 C39.0898183,28.3024 40.4858982,27.99496 41.685418,27.3800801 C42.8849379,26.7652001 43.8223778,25.8680802 44.4977377,24.6887204 C45.1730976,23.5093605 45.5107776,22.0931207 45.5107776,20.4400009 C45.5107776,18.7868811 45.1730976,17.3706412 44.4977377,16.1912814 C43.8223778,15.0119215 42.8849379,14.1148016 41.685418,13.4999217 C40.4858982,12.8850417 39.0898183,12.5776018 37.4971785,12.5776018 C35.9448587,12.5776018 34.5638989,12.8850417 33.354299,13.4999217 C32.1446991,14.1148016 31.2022192,15.0119215 30.5268593,16.1912814 C29.8514994,17.3706412 29.5138194,18.7868811 29.5138194,20.4400009 C29.5138194,22.0931207 29.8514994,23.5093605 30.5268593,24.6887204 C31.2022192,25.8680802 32.1446991,26.7652001 33.354299,27.3800801 C34.5638989,27.99496 35.9448587,28.3024 37.4971785,28.3024 Z M37.4971785,24.6433604 C36.9125386,24.6433604 36.4085386,24.4972004 35.9851787,24.2048804 C35.5618187,23.9125605 35.2392588,23.4589605 35.0174988,22.8440806 C34.7957388,22.2292007 34.6848588,21.4278408 34.6848588,20.4400009 C34.6848588,19.452161 34.7957388,18.6457611 35.0174988,18.0208011 C35.2392588,17.3958412 35.5618187,16.9422413 35.9851787,16.6600013 C36.4085386,16.3777613 36.9125386,16.2366413 37.4971785,16.2366413 C38.1019784,16.2366413 38.6160584,16.3777613 39.0394183,16.6600013 C39.4627783,16.9422413 39.7853383,17.3958412 40.0070982,18.0208011 C40.2288582,18.6457611 40.3397382,19.452161 40.3397382,20.4400009 C40.3397382,21.4278408 40.2288582,22.2292007 40.0070982,22.8440806 C39.7853383,23.4589605 39.4627783,23.9125605 39.0394183,24.2048804 C38.6160584,24.4972004 38.1019784,24.6433604 37.4971785,24.6433604 Z M53.5485702,28 L53.5485702,20.0166409 C53.5485702,19.190081 53.6695301,18.5197611 53.9114501,18.0056811 C54.1533701,17.4916012 54.48097,17.1136012 54.89425,16.8716813 C55.30753,16.6297613 55.7460099,16.5088013 56.2096898,16.5088013 C56.8144898,16.5088013 57.3084097,16.7003213 57.6914497,17.0833613 C58.0744896,17.4664012 58.2660096,18.1417611 58.2660096,19.109441 L58.2660096,19.109441 L58.2660096,28 L63.406809,28 L63.406809,19.9259209 C63.406809,19.159841 63.517689,18.5248011 63.739449,18.0208011 C63.961209,17.5168012 64.2787289,17.1388012 64.6920089,16.8868013 C65.1052888,16.6348013 65.5639288,16.5088013 66.0679287,16.5088013 C66.6928886,16.5088013 67.1918486,16.7003213 67.5648085,17.0833613 C67.9377685,17.4664012 68.1242485,18.1417611 68.1242485,19.109441 L68.1242485,19.109441 L68.1242485,28 L73.2045679,28 L73.2650479,17.9300812 C73.2852079,16.7406413 73.0634479,15.7477614 72.599768,14.9514415 C72.136088,14.1551216 71.5212081,13.5604017 70.7551282,13.1672817 C69.9890483,12.7741617 69.1020084,12.5776018 68.0940085,12.5776018 C67.3884086,12.5776018 66.7029686,12.6884818 66.0376887,12.9102417 C65.3724088,13.1320017 64.7827289,13.4646417 64.2686489,13.9081616 C63.754569,14.3516816 63.336249,14.9060815 63.0136891,15.5713614 C62.6104891,14.5835215 61.9956092,13.8376016 61.1690493,13.3336017 C60.3424894,12.8296017 59.3647295,12.5776018 58.2357696,12.5776018 C57.0866497,12.5776018 56.0736099,12.8497617 55.19665,13.3940817 C54.3196901,13.9384016 53.6392901,14.7448015 53.1554502,15.8132814 L53.1554502,15.8132814 L53.0042502,12.8800017 L48.4077707,12.8800017 L48.4077707,28 L53.5485702,28 Z M84.0607414,28.3024 C85.6533812,28.3024 87.0494611,27.99496 88.2489809,27.3800801 C89.4485008,26.7652001 90.3859407,25.8680802 91.0613006,24.6887204 C91.7366605,23.5093605 92.0743405,22.0931207 92.0743405,20.4400009 C92.0743405,18.7868811 91.7366605,17.3706412 91.0613006,16.1912814 C90.3859407,15.0119215 89.4485008,14.1148016 88.2489809,13.4999217 C87.0494611,12.8850417 85.6533812,12.5776018 84.0607414,12.5776018 C82.5084216,12.5776018 81.1274618,12.8850417 79.9178619,13.4999217 C78.708262,14.1148016 77.7657821,15.0119215 77.0904222,16.1912814 C76.4150623,17.3706412 76.0773823,18.7868811 76.0773823,20.4400009 C76.0773823,22.0931207 76.4150623,23.5093605 77.0904222,24.6887204 C77.7657821,25.8680802 78.708262,26.7652001 79.9178619,27.3800801 C81.1274618,27.99496 82.5084216,28.3024 84.0607414,28.3024 Z M84.0607414,24.6433604 C83.4761015,24.6433604 82.9721015,24.4972004 82.5487416,24.2048804 C82.1253816,23.9125605 81.8028217,23.4589605 81.5810617,22.8440806 C81.3593017,22.2292007 81.2484217,21.4278408 81.2484217,20.4400009 C81.2484217,19.452161 81.3593017,18.6457611 81.5810617,18.0208011 C81.8028217,17.3958412 82.1253816,16.9422413 82.5487416,16.6600013 C82.9721015,16.3777613 83.4761015,16.2366413 84.0607414,16.2366413 C84.6655414,16.2366413 85.1796213,16.3777613 85.6029812,16.6600013 C86.0263412,16.9422413 86.3489012,17.3958412 86.5706611,18.0208011 C86.7924211,18.6457611 86.9033011,19.452161 86.9033011,20.4400009 C86.9033011,21.4278408 86.7924211,22.2292007 86.5706611,22.8440806 C86.3489012,23.4589605 86.0263412,23.9125605 85.6029812,24.2048804 C85.1796213,24.4972004 84.6655414,24.6433604 84.0607414,24.6433604 Z" id="Flomo"></path>
                </g>
                <g id="Group-7-Copy-2" transform="translate(0.000000, 5.000000)">
                    <path d="M44.6267718,6.62286026 C45.8732718,10.7463604 36.9197715,17.1009607 24.628171,20.8164608 C12.3368705,24.531661 1.36227005,24.200761 0.115770005,20.0772608 C-1.13043004,15.9537606 7.82307031,9.59916038 20.1143708,5.88366023 C32.4056713,2.16816009 43.3802717,2.4993601 44.6267718,6.62286026 Z" id="Stroke-1" stroke="#FA8F8F" stroke-width="3"></path>
                    <path d="M38.3730615,14.8500006 C38.3730615,23.0514009 31.7244613,29.7000012 23.5230609,29.7000012 C15.3216606,29.7000012 8.67306034,23.0514009 8.67306034,14.8500006 C8.67306034,6.64860026 15.3216606,0 23.5230609,0 C31.7244613,0 38.3730615,6.64860026 38.3730615,14.8500006" id="Fill-3" fill="#3D1369"></path>
                </g>
                <g id="Group-57-Copy" transform="translate(9.000000, 15.000000)" stroke="#FA8F8F" stroke-width="3">
                    <g id="Group-7">
                        <path d="M0.447887536,7.80979157 C3.62224048,11.7465301 5.88060598,11.7547711 7.73637068,11.8329693 C13.2637824,12.066137 16.0633119,5.78373704 21.8540177,5.83967446 C25.3915472,5.87392185 28.6820759,8.34606389 30.4351347,10.2108348" id="Stroke-1" transform="translate(15.441511, 8.839303) rotate(-20.000000) translate(-15.441511, -8.839303) "></path>
                    </g>
                </g>
            </g>
        </g>
    </g>
</svg>