<?xml version="1.0" encoding="UTF-8"?>
<svg width="168px" height="40px" viewBox="0 0 168 40" version="1.1" xmlns="http://www.w3.org/2000/svg" xmlns:xlink="http://www.w3.org/1999/xlink">
    <title>Group 2</title>
    <g id="final-2" stroke="none" stroke-width="1" fill="none" fill-rule="evenodd">
        <g id="Desktop-HD-Copy-41" transform="translate(-176.000000, -50.000000)">
            <g id="Group-2" transform="translate(178.000000, 50.000000)">
                <g id="Group-7-Copy-3" transform="translate(0.000000, 4.400000)">
                    <path d="M43.1156665,17.0726363 C43.1156665,26.5015469 35.4719408,34.1452726 26.0430302,34.1452726 C16.6141196,34.1452726 8.97039395,26.5015469 8.97039395,17.0726363 C8.97039395,7.64372569 16.6141196,0 26.0430302,0 C35.4719408,0 43.1156665,7.64372569 43.1156665,17.0726363" id="Fill-1" fill="#FA8F8F"></path>
                    <path d="M10.1925758,25.8787021 C5.71385424,25.6173594 0.964597035,24.7978729 0.215152078,22.3258427 C-1.10206747,17.9793246 10.3112088,9.74812511 21.2276275,6.12872622 C33.5960958,2.02735367 48.8065015,2.18888708 50.1197812,7.00424603 C50.8206348,9.57302115 49.569517,11.0789152 42.8731037,15.8054089 C42.8731037,15.8054089 37.5136092,13.8245453 32.6934349,15.365898 C26.4663003,17.3572678 26.2242191,24.6013187 20.3201512,26.9306391 C18.3055801,27.7260489 15.1217524,28.1099643 10.1925758,25.8787021 Z" id="Stroke-3" stroke="#FFFFFF" stroke-width="3.30946488"></path>
                    <path d="M8.97039395,16.1971165 C9.08640032,14.1453358 9.635789,10.17748 12.4724732,6.56639857 C16.8973503,0.934617396 24.7936635,-1.16444135 31.2961491,0.875519809 C35.0166705,2.04302547 37.4707525,4.3114973 38.7380675,5.69087876 C28.8153637,9.192958 18.8930977,12.6950372 8.97039395,16.1971165" id="Fill-5" fill="#FA8F8F"></path>
                </g>
                <g id="Group-58-Copy-5" transform="translate(62.399996, 0.000000)" fill="#FFFFFF" fill-rule="nonzero">
                    <path d="M8.12851012,31 L8.12851012,22.5728916 L17.1528152,22.5728916 L17.1528152,18.1602718 L8.12851012,18.1602718 L8.12851012,13.5154089 L19.4420691,13.5154089 L19.4420691,9.10278908 L2.42196424,9.10278908 L2.42196424,31 L8.12851012,31 Z M27.3184263,31.3317759 C27.9377413,31.3317759 28.5681156,31.2543615 29.209549,31.0995328 C29.8509825,30.944704 30.3707648,30.7456385 30.7688959,30.5023361 L30.7688959,30.5023361 L31.1338494,27.1182217 C30.8241919,27.2066953 30.5587711,27.2730505 30.3375872,27.3172873 C30.1164032,27.361524 29.8399233,27.3836424 29.5081474,27.3836424 C28.9330691,27.3836424 28.5238788,27.2288137 28.2805764,26.9191561 C28.0372741,26.6094986 27.9156229,26.0897163 27.9156229,25.3598093 L27.9156229,25.3598093 L27.9156229,7.37755428 L22.2754322,7.37755428 L22.2754322,26.0897163 C22.2754322,27.9476615 22.6735633,29.2858244 23.4698256,30.104205 C24.2660878,30.9225856 25.5489547,31.3317759 27.3184263,31.3317759 Z M41.0870987,31.3317759 C42.8344519,31.3317759 44.3661508,30.9944704 45.6821953,30.3198594 C46.9982398,29.6452483 48.0267451,28.6609797 48.7677113,27.3670536 C49.5086776,26.0731275 49.8791607,24.5193103 49.8791607,22.7056019 C49.8791607,20.8918935 49.5086776,19.3380763 48.7677113,18.0441502 C48.0267451,16.7502241 46.9982398,15.7659555 45.6821953,15.0913445 C44.3661508,14.4167334 42.8344519,14.0794279 41.0870987,14.0794279 C39.3839823,14.0794279 37.8688723,14.4167334 36.5417686,15.0913445 C35.2146649,15.7659555 34.1806299,16.7502241 33.4396637,18.0441502 C32.6986975,19.3380763 32.3282144,20.8918935 32.3282144,22.7056019 C32.3282144,24.5193103 32.6986975,26.0731275 33.4396637,27.3670536 C34.1806299,28.6609797 35.2146649,29.6452483 36.5417686,30.3198594 C37.8688723,30.9944704 39.3839823,31.3317759 41.0870987,31.3317759 Z M41.0870987,27.3172873 C40.4456653,27.3172873 39.8927054,27.1569289 39.4282191,26.8362122 C38.9637328,26.5154954 38.6098385,26.0178316 38.3665362,25.3432205 C38.1232338,24.6686095 38.0015826,23.7894033 38.0015826,22.7056019 C38.0015826,21.6218006 38.1232338,20.7370648 38.3665362,20.0513945 C38.6098385,19.3657243 38.9637328,18.8680604 39.4282191,18.5584029 C39.8927054,18.2487454 40.4456653,18.0939166 41.0870987,18.0939166 C41.7506506,18.0939166 42.3146696,18.2487454 42.7791559,18.5584029 C43.2436422,18.8680604 43.5975365,19.3657243 43.8408389,20.0513945 C44.0841412,20.7370648 44.2057924,21.6218006 44.2057924,22.7056019 C44.2057924,23.7894033 44.0841412,24.6686095 43.8408389,25.3432205 C43.5975365,26.0178316 43.2436422,26.5154954 42.7791559,26.8362122 C42.3146696,27.1569289 41.7506506,27.3172873 41.0870987,27.3172873 Z M58.6977663,31 L58.6977663,22.2411156 C58.6977663,21.3342614 58.8304767,20.5988248 59.0958975,20.0348057 C59.3613182,19.4707867 59.7207421,19.0560668 60.1741692,18.790646 C60.6275963,18.5252253 61.1086714,18.3925149 61.6173945,18.3925149 C62.2809463,18.3925149 62.822847,18.6026397 63.2430965,19.0228892 C63.663346,19.4431387 63.8734707,20.1841049 63.8734707,21.2457879 L63.8734707,21.2457879 L63.8734707,31 L69.5136614,31 L69.5136614,22.1415829 C69.5136614,21.3010838 69.6353126,20.6043544 69.878615,20.0513945 C70.1219173,19.4984347 70.470282,19.0837148 70.9237091,18.8072348 C71.3771362,18.5307549 71.8803297,18.3925149 72.4332896,18.3925149 C73.1189598,18.3925149 73.6663901,18.6026397 74.0755804,19.0228892 C74.4847707,19.4431387 74.6893658,20.1841049 74.6893658,21.2457879 L74.6893658,21.2457879 L74.6893658,31 L80.2632013,31 L80.3295565,19.9518618 C80.3516749,18.6468765 80.1083726,17.5575455 79.5996495,16.6838689 C79.0909264,15.8101923 78.4163154,15.1576997 77.5758164,14.726391 C76.7353174,14.2950823 75.762108,14.0794279 74.6561882,14.0794279 C73.8820444,14.0794279 73.130019,14.2010791 72.400112,14.4443814 C71.6702049,14.6876838 71.0232419,15.0526373 70.4592228,15.539242 C69.8952037,16.0258467 69.4362471,16.6341025 69.0823527,17.3640096 C68.6399848,16.2802082 67.9653738,15.4618276 67.0585196,14.9088677 C66.1516654,14.3559079 65.0789233,14.0794279 63.8402932,14.0794279 C62.5795446,14.0794279 61.4680953,14.3780263 60.5059451,14.9752229 C59.5437949,15.5724196 58.7972991,16.4571554 58.2664576,17.6294303 L58.2664576,17.6294303 L58.1005697,14.4112038 L53.0575757,14.4112038 L53.0575757,31 L58.6977663,31 Z M92.1739732,31.3317759 C93.9213264,31.3317759 95.4530252,30.9944704 96.7690697,30.3198594 C98.0851142,29.6452483 99.1136196,28.6609797 99.8545858,27.3670536 C100.595552,26.0731275 100.966035,24.5193103 100.966035,22.7056019 C100.966035,20.8918935 100.595552,19.3380763 99.8545858,18.0441502 C99.1136196,16.7502241 98.0851142,15.7659555 96.7690697,15.0913445 C95.4530252,14.4167334 93.9213264,14.0794279 92.1739732,14.0794279 C90.4708568,14.0794279 88.9557467,14.4167334 87.628643,15.0913445 C86.3015393,15.7659555 85.2675044,16.7502241 84.5265382,18.0441502 C83.7855719,19.3380763 83.4150888,20.8918935 83.4150888,22.7056019 C83.4150888,24.5193103 83.7855719,26.0731275 84.5265382,27.3670536 C85.2675044,28.6609797 86.3015393,29.6452483 87.628643,30.3198594 C88.9557467,30.9944704 90.4708568,31.3317759 92.1739732,31.3317759 Z M92.1739732,27.3172873 C91.5325397,27.3172873 90.9795799,27.1569289 90.5150936,26.8362122 C90.0506073,26.5154954 89.696713,26.0178316 89.4534106,25.3432205 C89.2101083,24.6686095 89.0884571,23.7894033 89.0884571,22.7056019 C89.0884571,21.6218006 89.2101083,20.7370648 89.4534106,20.0513945 C89.696713,19.3657243 90.0506073,18.8680604 90.5150936,18.5584029 C90.9795799,18.2487454 91.5325397,18.0939166 92.1739732,18.0939166 C92.837525,18.0939166 93.4015441,18.2487454 93.8660304,18.5584029 C94.3305167,18.8680604 94.684411,19.3657243 94.9277133,20.0513945 C95.1710157,20.7370648 95.2926669,21.6218006 95.2926669,22.7056019 C95.2926669,23.7894033 95.1710157,24.6686095 94.9277133,25.3432205 C94.684411,26.0178316 94.3305167,26.5154954 93.8660304,26.8362122 C93.4015441,27.1569289 92.837525,27.3172873 92.1739732,27.3172873 Z" id="Flomo"></path>
                </g>
            </g>
        </g>
    </g>
</svg>