<?xml version="1.0" encoding="UTF-8"?>
<svg width="581px" height="307px" viewBox="0 0 581 307" version="1.1" xmlns="http://www.w3.org/2000/svg" xmlns:xlink="http://www.w3.org/1999/xlink">
    <title>Group 3 Copy 2</title>
    <g id="final-2" stroke="none" stroke-width="1" fill="none" fill-rule="evenodd">
        <g id="Desktop-HD-Copy-34" transform="translate(-430.000000, -450.000000)">
            <g id="Group-3-Copy-2" transform="translate(430.000000, 451.000000)">
                <path d="M120.5,184.5 C162.166667,146.833333 221,127.666667 297,127 C373,126.333333 435.5,145.5 484.5,184.5" id="Line" stroke="#000000" stroke-width="2" stroke-linecap="square"></path>
                <g id="Group-45-Copy-6" transform="translate(362.000000, 0.000000)">
                    <rect id="Rectangle-Copy-42" fill="#FFABAB" transform="translate(115.771285, 159.000473) rotate(9.000000) translate(-115.771285, -159.000473) " x="33.0912772" y="23.2804606" width="165.360016" height="271.440026" rx="43.6800041"></rect>
                    <rect id="Rectangle-Copy-45" fill="#EF9090" transform="translate(86.580008, 79.920008) rotate(9.000000) translate(-86.580008, -79.920008) " x="60.8400058" y="51.840005" width="51.4800049" height="56.1600053" rx="15.4440011"></rect>
                    <rect id="Rectangle-Copy-46" fill="#EF9090" transform="translate(77.220007, 140.760013) rotate(9.000000) translate(-77.220007, -140.760013) " x="51.4800049" y="112.680011" width="51.4800049" height="56.1600053" rx="15.4440011"></rect>
                    <rect id="Rectangle-Copy-47" fill="#EF9090" transform="translate(142.740014, 87.720008) rotate(9.000000) translate(-142.740014, -87.720008) " x="117.000011" y="59.6400057" width="51.4800049" height="56.1600053" rx="15.4440011"></rect>
                    <rect id="Rectangle-Copy-48" fill="#EF9090" transform="translate(133.380013, 148.560014) rotate(9.000000) translate(-133.380013, -148.560014) " x="107.64001" y="120.480011" width="51.4800049" height="56.1600053" rx="15.4440011"></rect>
                    <rect id="Rectangle-Copy-50" fill="#3D1369" transform="translate(88.920008, 239.820023) rotate(9.000000) translate(-88.920008, -239.820023) " x="28.0800027" y="221.880021" width="121.680012" height="35.8800034" rx="17.9400017"></rect>
                    <rect id="Rectangle-Copy-54" stroke="#3D1369" stroke-width="1.56000015" transform="translate(102.960010, 147.000014) rotate(9.000000) translate(-102.960010, -147.000014) " x="20.2800019" y="11.2800011" width="165.360016" height="271.440026" rx="43.6800041"></rect>
                </g>
                <g id="Group-40-Copy-5" transform="translate(0.000000, 1.000000)">
                    <rect id="Rectangle-Copy-27" fill="#8FFAD8" transform="translate(111.120011, 152.400473) rotate(-13.000000) translate(-111.120011, -152.400473) " x="28.4400028" y="16.6804599" width="165.360016" height="271.440026" rx="43.6800041"></rect>
                    <rect id="Rectangle-Copy-40" stroke="#3D1369" stroke-width="1.56000015" transform="translate(123.268738, 151.320014) rotate(-13.000000) translate(-123.268738, -151.320014) " x="40.5887299" y="15.6000015" width="165.360016" height="271.440026" rx="43.6800041"></rect>
                    <rect id="Rectangle-Copy-44" fill="#3D1369" transform="translate(115.468737, 109.200010) rotate(-13.000000) translate(-115.468737, -109.200010) " x="62.4287319" y="51.4800049" width="106.08001" height="115.440011" rx="15.4440011"></rect>
                    <rect id="Rectangle-Copy-49" fill="#74E3C0" transform="translate(145.128731, 241.195485) rotate(-13.000000) translate(-145.128731, -241.195485) " x="84.2887254" y="223.255483" width="121.680012" height="35.8800034" rx="17.9400017"></rect>
                </g>
            </g>
        </g>
    </g>
</svg>