<?xml version="1.0" encoding="UTF-8"?>
<svg width="20px" height="20px" viewBox="0 0 20 20" version="1.1" xmlns="http://www.w3.org/2000/svg" xmlns:xlink="http://www.w3.org/1999/xlink">
    <title>instagram-sketched</title>
    <g id="final-2" stroke="none" stroke-width="1" fill="none" fill-rule="evenodd">
        <g id="Desktop-HD-Copy-34" transform="translate(-1322.000000, -2211.000000)" fill="#000000" fill-rule="nonzero">
            <g id="Group-3" transform="translate(0.000000, 2146.000000)">
                <g id="Group-10">
                    <g id="Group-9" transform="translate(1297.000000, 65.000000)">
                        <g id="instagram-sketched" transform="translate(25.000000, 0.000000)">
                            <path d="M11.5769231,9.84615385 C11.5769231,10.8019832 10.8019832,11.5769231 9.84615385,11.5769231 C8.89032454,11.5769231 8.11538462,10.8019832 8.11538462,9.84615385 C8.11538462,8.89032454 8.89032454,8.11538462 9.84615385,8.11538462 C10.8019832,8.11538462 11.5769231,8.89032454 11.5769231,9.84615385 Z" id="Path"></path>
                            <path d="M12.7692308,4.61538462 L6.92307692,4.61538462 C5.65054085,4.61538462 4.61538462,5.65054085 4.61538462,6.92307692 L4.61538462,12.7692308 C4.61538462,14.0417668 5.65054085,15.0769231 6.92307692,15.0769231 L12.7692308,15.0769231 C14.0417668,15.0769231 15.0769231,14.0417668 15.0769231,12.7692308 L15.0769231,6.92307692 C15.0769231,5.65054085 14.0417668,4.61538462 12.7692308,4.61538462 Z M9.84615385,12.7307692 C8.25555888,12.7307692 6.96153846,11.4367488 6.96153846,9.84615385 C6.96153846,8.25555888 8.25555888,6.96153846 9.84615385,6.96153846 C11.4367488,6.96153846 12.7307692,8.25555888 12.7307692,9.84615385 C12.7307692,11.4367488 11.4367488,12.7307692 9.84615385,12.7307692 Z M13.1538462,7.11538462 C12.8351863,7.11538462 12.5769231,6.85712138 12.5769231,6.53846154 C12.5769231,6.21980169 12.8351863,5.96153846 13.1538462,5.96153846 C13.472506,5.96153846 13.7307692,6.21980169 13.7307692,6.53846154 C13.7307692,6.85712138 13.472506,7.11538462 13.1538462,7.11538462 Z" id="Shape"></path>
                            <path d="M14.5,0 L5.19230769,0 C2.32932692,0 0,2.32932692 0,5.19230769 L0,14.5 C0,17.3629808 2.32932692,19.6923077 5.19230769,19.6923077 L14.5,19.6923077 C17.3629808,19.6923077 19.6923077,17.3629808 19.6923077,14.5 L19.6923077,5.19230769 C19.6923077,2.32932692 17.3629808,0 14.5,0 Z M16.2307692,12.7692308 C16.2307692,14.6778846 14.6778846,16.2307692 12.7692308,16.2307692 L6.92307692,16.2307692 C5.01442308,16.2307692 3.46153846,14.6778846 3.46153846,12.7692308 L3.46153846,6.92307692 C3.46153846,5.01442308 5.01442308,3.46153846 6.92307692,3.46153846 L12.7692308,3.46153846 C14.6778846,3.46153846 16.2307692,5.01442308 16.2307692,6.92307692 L16.2307692,12.7692308 Z" id="Shape"></path>
                        </g>
                    </g>
                </g>
            </g>
        </g>
    </g>
</svg>