<?xml version="1.0" encoding="UTF-8"?>
<svg width="130px" height="35px" viewBox="0 0 130 35" version="1.1" xmlns="http://www.w3.org/2000/svg" xmlns:xlink="http://www.w3.org/1999/xlink">
    <title>Group 58</title>
    <g id="final-2" stroke="none" stroke-width="1" fill="none" fill-rule="evenodd">
        <g id="Desktop-HD-Copy-34" transform="translate(-60.000000, -14.000000)">
            <g id="Group">
                <g id="Group-58" transform="translate(63.000000, 14.000000)">
                    <path d="M61.7831944,28.3024 C64.726554,28.3024 66.9491938,27.60184 68.4511136,26.2007202 C69.9530334,24.7996004 70.7039934,22.6878406 70.7039934,19.8654409 L70.7039934,19.8654409 L70.7039934,8.04160229 L65.5027139,8.04160229 L65.5027139,19.9561609 C65.5027139,21.3875208 65.195274,22.4560006 64.5803941,23.1616006 C63.9655141,23.8672005 63.0331142,24.2200004 61.7831944,24.2200004 C60.5534345,24.2200004 59.6311146,23.8672005 59.0162347,23.1616006 C58.4013548,22.4560006 58.0939148,21.3875208 58.0939148,19.9561609 L58.0939148,19.9561609 L58.0939148,8.04160229 L52.8623954,8.04160229 L52.8623954,19.8654409 C52.8623954,22.6878406 53.6183953,24.7996004 55.1303951,26.2007202 C56.642395,27.60184 58.8599947,28.3024 61.7831944,28.3024 Z M76.9455257,11.1260819 C77.9736856,11.1260819 78.7296855,10.929522 79.2135254,10.536402 C79.6973654,10.143282 79.9392853,9.52336212 79.9392853,8.67664222 C79.9392853,7.80976232 79.6973654,7.17976239 79.2135254,6.78664243 C78.7296855,6.39352248 77.9736856,6.1969625 76.9455257,6.1969625 C75.8972058,6.1969625 75.1361659,6.39352248 74.6624059,6.78664243 C74.188646,7.17976239 73.951766,7.80976232 73.951766,8.67664222 C73.951766,9.52336212 74.188646,10.143282 74.6624059,10.536402 C75.1361659,10.929522 75.8972058,11.1260819 76.9455257,11.1260819 Z M79.5159254,28 L79.5159254,12.8800017 L74.375126,12.8800017 L74.375126,28 L79.5159254,28 Z M89.3499413,28 L89.3489956,16.54 L93.6440208,16.5390413 L93.6440208,12.8800017 L89.0469956,12.881 L89.0475413,11.8216019 C89.0475413,11.0824019 89.2381163,10.546482 89.6192662,10.213842 L89.7279412,10.128162 C90.1815412,9.80560209 90.7611411,9.6443221 91.466741,9.6443221 C91.890101,9.6443221 92.2429009,9.6846421 92.5251409,9.76528209 C92.8073809,9.84592208 93.0593808,9.95680207 93.2811408,10.0979221 L93.2811408,10.0979221 L93.7952207,6.89248242 C93.4928208,6.67072245 93.0291408,6.47416247 92.4041809,6.30280249 C91.779221,6.13144251 91.0534611,6.04576252 90.2269012,6.04576252 C89.4205012,6.04576252 88.6544213,6.14656251 87.9286614,6.34816248 C87.2029015,6.54976246 86.5577816,6.87232242 85.9933016,7.31584237 C85.4288217,7.75936232 84.9903418,8.32384226 84.6778618,9.00928218 C84.3653818,9.6947221 84.2091418,10.521282 84.2091418,11.4889619 L84.2091418,11.4889619 L84.2089956,12.881 L81.7899421,12.8800017 L81.7899421,16.5390413 L84.2089956,16.54 L84.2091418,28 L89.3499413,28 Z M100.26658,28.3024 C100.83106,28.3024 101.40562,28.23184 101.99026,28.09072 C102.5749,27.9496 103.04866,27.76816 103.41154,27.5464001 L103.41154,27.5464001 L103.74418,24.4619204 C103.46194,24.5425604 103.22002,24.6030404 103.01842,24.6433604 C102.81682,24.6836804 102.56482,24.7038404 102.26242,24.7038404 C101.73826,24.7038404 101.3653,24.5627204 101.14354,24.2804804 C100.92178,23.9982405 100.8109,23.5244805 100.8109,22.8592006 L100.8109,22.8592006 L100.8109,6.46912247 L95.6701005,6.46912247 L95.6701005,23.5244805 C95.6701005,25.2179203 96.0329805,26.4376002 96.7587404,27.1835201 C97.4845003,27.92944 98.6537802,28.3024 100.26658,28.3024 Z M114.938973,28.3024 C116.954973,28.3024 118.693773,27.89416 120.155373,27.0776801 C121.616972,26.2612002 122.740892,25.0868803 123.527132,23.5547205 C124.313372,22.0225607 124.706492,20.1779209 124.706492,18.0208011 C124.706492,15.8636814 124.313372,14.0190416 123.527132,12.4868818 C122.740892,10.954722 121.616972,9.78040209 120.155373,8.96392218 C118.693773,8.14744228 116.954973,7.73920232 114.938973,7.73920232 C112.922973,7.73920232 111.179134,8.14744228 109.707454,8.96392218 C108.235774,9.78040209 107.106814,10.954722 106.320574,12.4868818 C105.534334,14.0190416 105.141214,15.8636814 105.141214,18.0208011 C105.141214,20.1779209 105.534334,22.0225607 106.320574,23.5547205 C107.106814,25.0868803 108.235774,26.2612002 109.707454,27.0776801 C111.179134,27.89416 112.922973,28.3024 114.938973,28.3024 Z M114.938973,24.2200004 C113.971293,24.2200004 113.154813,23.9881605 112.489533,23.5244805 C111.824254,23.0608006 111.320254,22.3652806 110.977534,21.4379208 C110.634814,20.5105609 110.463454,19.371521 110.463454,18.0208011 C110.463454,16.6499213 110.634814,15.5058414 110.977534,14.5885615 C111.320254,13.6712816 111.824254,12.9808017 112.489533,12.5171218 C113.154813,12.0534418 113.971293,11.8216019 114.938973,11.8216019 C115.906653,11.8216019 116.718093,12.0534418 117.373293,12.5171218 C118.028493,12.9808017 118.527453,13.6712816 118.870173,14.5885615 C119.212893,15.5058414 119.384253,16.6499213 119.384253,18.0208011 C119.384253,19.371521 119.212893,20.5105609 118.870173,21.4379208 C118.527453,22.3652806 118.028493,23.0608006 117.373293,23.5244805 C116.718093,23.9881605 115.906653,24.2200004 114.938973,24.2200004 Z" id="UifO" fill="#3D1369" fill-rule="nonzero"></path>
                    <g id="Group-57" transform="translate(0.000000, 3.960000)">
                        <g id="Group-7">
                            <path d="M0.0129729586,9.74159894 C4.50061871,16.6242524 8.36656038,18.087203 10.9900918,18.223918 C18.8043035,18.6315683 22.7620538,7.647963 30.9484896,7.74575915 C35.9495652,7.80563435 39.9462343,11.9699541 42.4245684,15.2301583" id="Stroke-1" stroke="#FA8F8F" stroke-width="5.98751935"></path>
                            <path d="M12.0600117,-5.11590726e-15 C15.0911933,-5.11590726e-15 17.5485711,2.45737773 17.5485711,5.48855941 C17.5485711,8.51974108 15.0911933,10.9771188 12.0600117,10.9771188 C9.02882999,10.9771188 6.57145225,8.51974108 6.57145225,5.48855941 C6.57145225,2.45737773 9.02882999,-5.11590726e-15 12.0600117,-5.11590726e-15" id="Fill-3" fill="#3D1369"></path>
                            <path d="M36.0871291,20.2197578 C36.0871291,23.2509395 33.6297514,25.7083172 30.5985697,25.7083172 C27.567388,25.7083172 25.1100103,23.2509395 25.1100103,20.2197578 C25.1100103,17.1885761 27.567388,14.7311984 30.5985697,14.7311984 C33.6297514,14.7311984 36.0871291,17.1885761 36.0871291,20.2197578" id="Fill-5" fill="#3D1369"></path>
                        </g>
                    </g>
                </g>
            </g>
        </g>
    </g>
</svg>