<?xml version="1.0" encoding="UTF-8"?>
<svg width="144px" height="39px" viewBox="0 0 144 39" version="1.1" xmlns="http://www.w3.org/2000/svg" xmlns:xlink="http://www.w3.org/1999/xlink">
    <title>Group 58</title>
    <g id="final-2" stroke="none" stroke-width="1" fill="none" fill-rule="evenodd">
        <g id="Desktop-HD-Copy-31" transform="translate(-61.000000, -13.000000)">
            <g id="Group-58" transform="translate(64.000000, 13.000000)">
                <text id="UiflO-Copy-20" font-family="WorkSans-Regular_Bold, Work Sans" font-size="33.599997" font-weight="bold" fill="#3D1369">
                    <tspan x="56.7199966" y="31">UiflO</tspan>
                </text>
                <g id="Group-57" transform="translate(0.000000, 4.400000)">
                    <g id="Group-7">
                        <path d="M0.0144143988,10.8239991 C5.00068759,18.4713921 9.29617844,20.0968928 12.2112134,20.2487983 C20.8936711,20.7017431 25.2911715,8.4977369 34.3872116,8.60639929 C39.9439623,8.67292728 44.384706,13.2999493 47.1384106,16.9223986" id="Stroke-1" stroke="#FA8F8F" stroke-width="6.65279946"></path>
                        <path d="M13.4000133,-5.68434155e-15 C16.767993,-5.68434155e-15 19.4984128,2.73041978 19.4984128,6.0983995 C19.4984128,9.46637923 16.767993,12.196799 13.4000133,12.196799 C10.0320336,12.196799 7.30161381,9.46637923 7.30161381,6.0983995 C7.30161381,2.73041978 10.0320336,-5.68434155e-15 13.4000133,-5.68434155e-15" id="Fill-3" fill="#3D1369"></path>
                        <path d="M40.0968112,22.4663982 C40.0968112,25.8343779 37.3663914,28.5647977 33.9984117,28.5647977 C30.6304319,28.5647977 27.9000122,25.8343779 27.9000122,22.4663982 C27.9000122,19.0984184 30.6304319,16.3679987 33.9984117,16.3679987 C37.3663914,16.3679987 40.0968112,19.0984184 40.0968112,22.4663982" id="Fill-5" fill="#3D1369"></path>
                    </g>
                </g>
            </g>
        </g>
    </g>
</svg>