<?xml version="1.0" encoding="UTF-8"?>
<svg width="20px" height="20px" viewBox="0 0 20 20" version="1.1" xmlns="http://www.w3.org/2000/svg" xmlns:xlink="http://www.w3.org/1999/xlink">
    <title>twitter (1)</title>
    <g id="final-2" stroke="none" stroke-width="1" fill="none" fill-rule="evenodd">
        <g id="Desktop-HD-Copy-34" transform="translate(-1347.000000, -2211.000000)" fill="#000000" fill-rule="nonzero">
            <g id="Group-3" transform="translate(0.000000, 2146.000000)">
                <g id="Group-10">
                    <g id="Group-9" transform="translate(1297.000000, 65.000000)">
                        <g id="twitter-(1)" transform="translate(50.000000, 0.000000)">
                            <path d="M14.8078431,0.00784313725 L4.95686275,0.00784313725 C2.22745098,0.00784313725 0,2.23529412 0,4.96470588 L0,14.8313725 C0,17.545098 2.22745098,19.772549 4.95686275,19.772549 L14.8235294,19.772549 C17.5529412,19.772549 19.7803922,17.545098 19.7803922,14.8156863 L19.7803922,4.96470588 C19.7647059,2.23529412 17.5372549,0.00784313725 14.8078431,0.00784313725 Z M14.7921569,7.41176471 C14.7921569,7.52156863 14.7921569,7.63137255 14.7921569,7.74117647 C14.7921569,11.0352941 12.2509804,14.8313725 7.59215686,14.8313725 C6.16470588,14.8313725 4.83137255,14.4235294 3.71764706,13.7176471 C3.92156863,13.7333333 4.10980392,13.7490196 4.31372549,13.7490196 C5.50588235,13.7490196 6.58823529,13.3568627 7.45098039,12.6823529 C6.3372549,12.6666667 5.41176471,11.945098 5.08235294,10.9568627 C5.23921569,10.9882353 5.39607843,11.0039216 5.55294118,11.0039216 C5.78823529,11.0039216 6.02352941,10.972549 6.22745098,10.9098039 C5.09803922,10.6745098 4.23529412,9.67058824 4.23529412,8.4627451 L4.23529412,8.43137255 C4.54901961,8.61960784 4.95686275,8.72941176 5.36470588,8.74509804 C4.69019608,8.30588235 4.23529412,7.5372549 4.23529412,6.6745098 C4.23529412,6.21960784 4.36078431,5.79607843 4.58039216,5.41960784 C5.83529412,6.9254902 7.68627451,7.91372549 9.78823529,8.02352941 C9.74117647,7.83529412 9.7254902,7.64705882 9.7254902,7.45882353 C9.7254902,6.07843137 10.854902,4.96470588 12.2509804,4.96470588 C12.972549,4.96470588 13.6313725,5.2627451 14.1019608,5.74901961 C14.6823529,5.63921569 15.2156863,5.43529412 15.7019608,5.1372549 C15.5137255,5.71764706 15.1058824,6.20392157 14.5882353,6.51764706 C15.1058824,6.45490196 15.5921569,6.32941176 16.0470588,6.1254902 C15.7019608,6.62745098 15.2784314,7.06666667 14.7921569,7.41176471 Z" id="Shape"></path>
                        </g>
                    </g>
                </g>
            </g>
        </g>
    </g>
</svg>